<?xml version="1.0" encoding="utf-8"?>
<!-- Generator: Adobe Illustrator 19.2.1, SVG Export Plug-In . SVG Version: 6.00 Build 0)  -->
<svg version="1.1" id="Слой_1" xmlns="http://www.w3.org/2000/svg" xmlns:xlink="http://www.w3.org/1999/xlink" x="0px" y="0px"
	 viewBox="0 0 1000 1000" style="enable-background:new 0 0 1000 1000;" xml:space="preserve">
<style type="text/css">
	.st0{fill:#383838;stroke:#000000;stroke-linecap:round;stroke-miterlimit:10;}
	.st1{fill:#FFFFFF;}
</style>
<path class="st0" d="M693.6,645.6H338.1c-65.2,0-118.5-53.3-118.5-118.5v-93c0-65.2,53.3-118.5,118.5-118.5h355.5
	c65.2,0,118.5,53.3,118.5,118.5v93C812.1,592.3,758.8,645.6,693.6,645.6z"/>
<g>
	<g>
		<path class="st1" d="M321.2,436.1c7.8,0,14.5,1.1,19.8,3.4c7.5,3.1,11.3,7.9,11.3,14.2c0,3.6-1,6.5-3.1,8.8
			c-2.1,2.3-4.6,3.5-7.6,3.5c-1.9,0-4.6-0.7-8.1-2.2c-3.5-1.5-7.1-2.2-10.8-2.2c-6.3,0-11.1,2.1-14.5,6.4c-3.4,4.3-5,9.6-5,16
			c0,6.5,1.6,11.9,4.8,16.2c3.2,4.3,7.6,6.4,13.2,6.4c3.8,0,7.3-0.5,10.5-1.5s6.5-2.1,9.8-3.2c2.9,0,5.4,1.2,7.6,3.7
			c2.1,2.5,3.2,5.2,3.2,8.1c0,6-3.9,10.7-11.6,14.2c-6.3,2.8-12.8,4.2-19.5,4.2c-13.1,0-23.8-4.6-31.9-13.7
			c-8.2-9.2-12.3-20.6-12.3-34.3c0-13.6,4.1-25,12.3-34.1C297.4,440.7,308.1,436.1,321.2,436.1z"/>
		<path class="st1" d="M403.2,436.1c7.8,0,14.5,1.1,19.8,3.4c7.5,3.1,11.3,7.9,11.3,14.2c0,3.6-1,6.5-3.1,8.8
			c-2.1,2.3-4.6,3.5-7.6,3.5c-1.9,0-4.6-0.7-8.1-2.2c-3.5-1.5-7.1-2.2-10.8-2.2c-6.3,0-11.1,2.1-14.5,6.4c-3.4,4.3-5,9.6-5,16
			c0,6.5,1.6,11.9,4.8,16.2c3.2,4.3,7.6,6.4,13.2,6.4c3.8,0,7.3-0.5,10.5-1.5s6.5-2.1,9.8-3.2c2.9,0,5.4,1.2,7.6,3.7
			c2.1,2.5,3.2,5.2,3.2,8.1c0,6-3.9,10.7-11.6,14.2c-6.3,2.8-12.8,4.2-19.5,4.2c-13.1,0-23.8-4.6-31.9-13.7
			c-8.2-9.2-12.3-20.6-12.3-34.3c0-13.6,4.1-25,12.3-34.1C379.4,440.7,390.1,436.1,403.2,436.1z"/>
		<path class="st1" d="M442.8,421.8c0-4.7,1.3-8.3,3.8-10.9c2.5-2.5,5.8-3.8,9.8-3.8c4.1,0,7.4,1.2,9.9,3.7
			c2.5,2.5,3.7,6.1,3.7,10.9v81.9h29.2c4.4,0,7.7,1.1,10.1,3.4c2.4,2.2,3.5,5.4,3.5,9.4c0,3.9-1.2,7-3.6,9.3
			c-2.4,2.3-5.7,3.5-10,3.5h-42.9c-3.7,0-6.9-1.2-9.6-3.7c-2.7-2.5-4-5.8-4-10.1V421.8z"/>
		<path class="st1" d="M533.2,398.2c4.4,0,8.1,1.5,11.1,4.5c3,3,4.5,6.8,4.5,11.3c0,4.5-1.5,8.3-4.5,11.3c-3,3-6.7,4.5-11.1,4.5
			c-4.4,0-8.1-1.5-11.1-4.5c-3-3-4.5-6.8-4.5-11.3c0-4.4,1.5-8.1,4.6-11.2C525.3,399.8,529,398.2,533.2,398.2z M520.1,451.5
			c0-3.8,1.2-7,3.6-9.7c2.4-2.6,5.6-4,9.5-4c3.8,0,6.9,1.3,9.4,3.9c2.5,2.6,3.7,5.8,3.7,9.8v65c0,3.9-1.2,7.2-3.6,9.9
			c-2.4,2.6-5.6,4-9.5,4c-3.8,0-6.9-1.3-9.4-3.9c-2.5-2.6-3.7-5.9-3.7-9.9V451.5z"/>
		<path class="st1" d="M561.6,465.8c-1-2.7-1.7-4.7-2.2-6.1c-1.2-3.6-1.8-6.5-1.8-8.8c0-3.6,1.3-6.7,3.9-9.3
			c2.6-2.6,5.7-3.9,9.2-3.9c2.9,0,5.4,0.7,7.5,2c2.1,1.3,3.8,4,5.1,7.9l13.9,40.3l14.3-40.3c1.3-3.8,3-6.4,5-7.8
			c2-1.4,4.5-2.1,7.6-2.1c3.6,0,6.7,1.3,9.2,3.9c2.6,2.6,3.9,5.7,3.9,9.3c0,2.2-0.6,5.1-1.7,8.4c-0.7,2-1.5,4.2-2.4,6.4l-21.3,53.7
			c-1.3,3.4-3.2,6-5.5,7.9s-5.3,2.9-8.9,2.9c-3.6,0-6.5-0.9-8.8-2.8c-2.3-1.9-4.2-4.5-5.6-8L561.6,465.8z"/>
		<path class="st1" d="M674.7,492.7c0,3.6,1.4,6.7,4.2,9.4c3.7,3.6,9.3,5.4,16.8,5.4c4.8,0,10.1-1.4,16-4.2
			c5.8-2.8,9.5-4.2,10.9-4.2c3.1,0,5.7,1,7.8,3.1c2.1,2.1,3.1,4.9,3.1,8.3c0,6.2-4.2,11.3-12.7,15.3c-8.5,4-18,6.1-28.5,6.1
			c-13.7,0-24.7-4.6-33.2-13.7c-8.5-9.2-12.7-20.6-12.7-34.3c0-13.1,4.3-24.4,12.9-33.8c8.6-9.4,19.6-14.1,32.9-14.1
			c12.4,0,22.7,4.6,30.9,13.8c7.7,8.8,11.6,19.1,11.6,31.2c0,4.4-1,7.4-3,9.1c-2,1.7-5.3,2.5-9.7,2.5H674.7z M708.7,474.5
			c0-3.6-1.5-7-4.5-10.3c-3.5-3.8-7.6-5.7-12.4-5.7c-4.7,0-8.7,1.8-12,5.4c-3.3,3.6-5,7.1-5,10.6H708.7z"/>
	</g>
	<g>
		<path class="st1" d="M321.2,436.1c7.8,0,14.5,1.1,19.8,3.4c7.5,3.1,11.3,7.9,11.3,14.2c0,3.6-1,6.5-3.1,8.8
			c-2.1,2.3-4.6,3.5-7.6,3.5c-1.9,0-4.6-0.7-8.1-2.2c-3.5-1.5-7.1-2.2-10.8-2.2c-6.3,0-11.1,2.1-14.5,6.4c-3.4,4.3-5,9.6-5,16
			c0,6.5,1.6,11.9,4.8,16.2c3.2,4.3,7.6,6.4,13.2,6.4c3.8,0,7.3-0.5,10.5-1.5s6.5-2.1,9.8-3.2c2.9,0,5.4,1.2,7.6,3.7
			c2.1,2.5,3.2,5.2,3.2,8.1c0,6-3.9,10.7-11.6,14.2c-6.3,2.8-12.8,4.2-19.5,4.2c-13.1,0-23.8-4.6-31.9-13.7
			c-8.2-9.2-12.3-20.6-12.3-34.3c0-13.6,4.1-25,12.3-34.1C297.4,440.7,308.1,436.1,321.2,436.1z"/>
		<path class="st1" d="M403.2,436.1c7.8,0,14.5,1.1,19.8,3.4c7.5,3.1,11.3,7.9,11.3,14.2c0,3.6-1,6.5-3.1,8.8
			c-2.1,2.3-4.6,3.5-7.6,3.5c-1.9,0-4.6-0.7-8.1-2.2c-3.5-1.5-7.1-2.2-10.8-2.2c-6.3,0-11.1,2.1-14.5,6.4c-3.4,4.3-5,9.6-5,16
			c0,6.5,1.6,11.9,4.8,16.2c3.2,4.3,7.6,6.4,13.2,6.4c3.8,0,7.3-0.5,10.5-1.5s6.5-2.1,9.8-3.2c2.9,0,5.4,1.2,7.6,3.7
			c2.1,2.5,3.2,5.2,3.2,8.1c0,6-3.9,10.7-11.6,14.2c-6.3,2.8-12.8,4.2-19.5,4.2c-13.1,0-23.8-4.6-31.9-13.7
			c-8.2-9.2-12.3-20.6-12.3-34.3c0-13.6,4.1-25,12.3-34.1C379.4,440.7,390.1,436.1,403.2,436.1z"/>
		<path class="st1" d="M442.8,421.8c0-4.7,1.3-8.3,3.8-10.9c2.5-2.5,5.8-3.8,9.8-3.8c4.1,0,7.4,1.2,9.9,3.7
			c2.5,2.5,3.7,6.1,3.7,10.9v81.9h29.2c4.4,0,7.7,1.1,10.1,3.4c2.4,2.2,3.5,5.4,3.5,9.4c0,3.9-1.2,7-3.6,9.3
			c-2.4,2.3-5.7,3.5-10,3.5h-42.9c-3.7,0-6.9-1.2-9.6-3.7c-2.7-2.5-4-5.8-4-10.1V421.8z"/>
		<path class="st1" d="M533.2,398.2c4.4,0,8.1,1.5,11.1,4.5c3,3,4.5,6.8,4.5,11.3c0,4.5-1.5,8.3-4.5,11.3c-3,3-6.7,4.5-11.1,4.5
			c-4.4,0-8.1-1.5-11.1-4.5c-3-3-4.5-6.8-4.5-11.3c0-4.4,1.5-8.1,4.6-11.2C525.3,399.8,529,398.2,533.2,398.2z M520.1,451.5
			c0-3.8,1.2-7,3.6-9.7c2.4-2.6,5.6-4,9.5-4c3.8,0,6.9,1.3,9.4,3.9c2.5,2.6,3.7,5.8,3.7,9.8v65c0,3.9-1.2,7.2-3.6,9.9
			c-2.4,2.6-5.6,4-9.5,4c-3.8,0-6.9-1.3-9.4-3.9c-2.5-2.6-3.7-5.9-3.7-9.9V451.5z"/>
		<path class="st1" d="M561.6,465.8c-1-2.7-1.7-4.7-2.2-6.1c-1.2-3.6-1.8-6.5-1.8-8.8c0-3.6,1.3-6.7,3.9-9.3
			c2.6-2.6,5.7-3.9,9.2-3.9c2.9,0,5.4,0.7,7.5,2c2.1,1.3,3.8,4,5.1,7.9l13.9,40.3l14.3-40.3c1.3-3.8,3-6.4,5-7.8
			c2-1.4,4.5-2.1,7.6-2.1c3.6,0,6.7,1.3,9.2,3.9c2.6,2.6,3.9,5.7,3.9,9.3c0,2.2-0.6,5.1-1.7,8.4c-0.7,2-1.5,4.2-2.4,6.4l-21.3,53.7
			c-1.3,3.4-3.2,6-5.5,7.9s-5.3,2.9-8.9,2.9c-3.6,0-6.5-0.9-8.8-2.8c-2.3-1.9-4.2-4.5-5.6-8L561.6,465.8z"/>
		<path class="st1" d="M674.7,492.7c0,3.6,1.4,6.7,4.2,9.4c3.7,3.6,9.3,5.4,16.8,5.4c4.8,0,10.1-1.4,16-4.2
			c5.8-2.8,9.5-4.2,10.9-4.2c3.1,0,5.7,1,7.8,3.1c2.1,2.1,3.1,4.9,3.1,8.3c0,6.2-4.2,11.3-12.7,15.3c-8.5,4-18,6.1-28.5,6.1
			c-13.7,0-24.7-4.6-33.2-13.7c-8.5-9.2-12.7-20.6-12.7-34.3c0-13.1,4.3-24.4,12.9-33.8c8.6-9.4,19.6-14.1,32.9-14.1
			c12.4,0,22.7,4.6,30.9,13.8c7.7,8.8,11.6,19.1,11.6,31.2c0,4.4-1,7.4-3,9.1c-2,1.7-5.3,2.5-9.7,2.5H674.7z M708.7,474.5
			c0-3.6-1.5-7-4.5-10.3c-3.5-3.8-7.6-5.7-12.4-5.7c-4.7,0-8.7,1.8-12,5.4c-3.3,3.6-5,7.1-5,10.6H708.7z"/>
	</g>
</g>
<g>
</g>
<g>
</g>
<g>
</g>
<g>
</g>
<g>
</g>
<g>
</g>
</svg>
